<svg width="28" height="28" viewBox="0 0 28 28" fill="none" xmlns="http://www.w3.org/2000/svg">
<path d="M14 0.291626C14.5906 0.291626 15.0694 0.770433 15.0694 1.36107V3.20967C19.2898 3.73594 22.5556 7.3361 22.5556 11.699V16.2188C22.5556 16.3467 22.6241 16.4648 22.7352 16.5283L23.8824 17.1838C24.5748 17.5795 25.0364 18.2823 25.1245 19.0749L25.2249 19.979C25.3892 21.4572 24.2321 22.75 22.7448 22.75H17.2083C17.2083 24.5219 15.7719 25.9583 14 25.9583C12.2281 25.9583 10.7917 24.5219 10.7917 22.75H5.25519C3.76792 22.75 2.61084 21.4572 2.77508 19.979L2.87554 19.0749C2.96361 18.2823 3.4252 17.5795 4.1176 17.1838L5.26484 16.5283C5.37591 16.4648 5.44446 16.3467 5.44446 16.2188V11.699C5.44446 7.33611 8.7102 3.73595 12.9306 3.20967V1.36107C12.9306 0.770433 13.4094 0.291626 14 0.291626ZM12.9306 22.75C12.9306 23.3406 13.4094 23.8194 14 23.8194C14.5906 23.8194 15.0694 23.3406 15.0694 22.75H12.9306ZM14 5.28237C10.4562 5.28237 7.58335 8.15521 7.58335 11.699V16.2188C7.58335 17.1142 7.10352 17.9411 6.32603 18.3853L5.17879 19.0409C5.07987 19.0974 5.01393 19.1978 5.00135 19.3111L4.90089 20.2152C4.87742 20.4264 5.04272 20.6111 5.25519 20.6111H22.7448C22.9573 20.6111 23.1226 20.4264 23.0991 20.2152L22.9987 19.3111C22.9861 19.1978 22.9202 19.0974 22.8212 19.0409L21.674 18.3853C20.8965 17.9411 20.4167 17.1142 20.4167 16.2188V11.699C20.4167 8.15521 17.5438 5.28237 14 5.28237Z" fill="#FE724C"/>
</svg>
