<svg width="32" height="32" viewBox="0 0 32 32" fill="none" xmlns="http://www.w3.org/2000/svg">
<path d="M30.5617 4C31.2586 4 31.7418 4.69497 31.4991 5.34825L31.2515 6.01491C31.1059 6.40672 30.732 6.66667 30.3141 6.66667H28.8131C28.5905 6.66667 28.3947 6.81381 28.3328 7.02763L24.0143 21.9447C23.8905 22.3724 23.499 22.6667 23.0538 22.6667H6.81823C6.41542 22.6667 6.05194 22.425 5.8961 22.0535L0.581857 9.38688C0.305384 8.72789 0.78936 8 1.50399 8H21.095C21.7579 8 22.2374 8.63335 22.0575 9.27141L21.8695 9.93808C21.7479 10.369 21.3548 10.6667 20.907 10.6667H4.76268C4.40536 10.6667 4.16337 11.0306 4.30162 11.3601L7.79805 19.6934C7.87597 19.8792 8.05771 20 8.25911 20H21.4536C21.6768 20 21.873 19.8521 21.9343 19.6375L26.1993 4.72503C26.3221 4.29585 26.7144 4 27.1608 4H30.5617ZM11.3333 24C10.2293 24 9.33333 24.896 9.33333 26C9.33333 27.1053 10.2293 28 11.3333 28C12.4373 28 13.3333 27.1053 13.3333 26C13.3333 24.896 12.4373 24 11.3333 24ZM18 24C16.896 24 16 24.8947 16 26C16 27.1053 16.896 28 18 28C19.104 28 20 27.1053 20 26C20 24.896 19.104 24 18 24Z" fill="#FE724C"/>
</svg>
