<svg width="26" height="26" viewBox="0 0 26 26" fill="none" xmlns="http://www.w3.org/2000/svg">
<path d="M14.5659 14.1818C13.9356 13.2955 13.1036 12.6801 12.0699 12.3358C11.0362 11.9915 9.96745 11.819 8.86364 11.8182C7.75982 11.8174 6.69106 11.9899 5.65736 12.3358C4.62367 12.6817 3.79167 13.297 3.16136 14.1818H14.5659ZM0 16.5455C0 14.3985 0.896212 12.6801 2.68864 11.3904C4.48106 10.1006 6.53939 9.45533 8.86364 9.45454C11.1879 9.45376 13.2462 10.099 15.0386 11.3904C16.8311 12.6817 17.7273 14.4001 17.7273 16.5455H0ZM0 21.2727V18.9091H17.7273V21.2727H0ZM20.0909 26V23.6364H21.7455L23.4 7.09091H12.1136L11.8182 4.72727H17.7273V0H20.0909V4.72727H26L24.05 24.2864C23.9909 24.7788 23.7742 25.1877 23.4 25.5131C23.0258 25.8385 22.5924 26.0008 22.1 26H20.0909ZM1.18182 26C0.84697 26 0.566485 25.8865 0.340364 25.6596C0.114242 25.4327 0.000787879 25.1522 0 24.8182V23.6364H17.7273V24.8182C17.7273 25.153 17.6138 25.4339 17.3869 25.6608C17.16 25.8877 16.8795 26.0008 16.5455 26H1.18182Z" fill="#FE724C"/>
</svg>
