<svg width="24" height="24" viewBox="0 0 24 24" fill="none" xmlns="http://www.w3.org/2000/svg">
<path fill-rule="evenodd" clip-rule="evenodd" d="M12.5941 1.994C12.2485 1.71066 11.7509 1.71066 11.4053 1.99401L1.34302 10.2438C1.03674 10.495 0.92131 10.9115 1.05465 11.2844C1.188 11.6574 1.54134 11.9063 1.93741 11.9063H3.39461L4.13965 20.0485C4.21325 20.8529 4.88786 21.4686 5.69562 21.4686H9.18757C9.53274 21.4686 9.81256 21.1888 9.81256 20.8436V16.0407C9.81256 14.1658 11.3423 14.1658 11.6875 14.1658H12.3125C12.6577 14.1658 14.1875 14.1658 14.1875 16.0407V20.8436C14.1875 21.1888 14.4673 21.4686 14.8125 21.4686H18.3045C19.1123 21.4686 19.7869 20.8529 19.8605 20.0485L20.6055 11.9063H22.0623C22.4584 11.9063 22.8118 11.6574 22.9451 11.2844C23.0784 10.9115 22.963 10.4949 22.6567 10.2438L12.5941 1.994Z" fill="#FE724C"/>
</svg>
