<svg width="24" height="20" viewBox="0 0 24 20" fill="none" xmlns="http://www.w3.org/2000/svg">
<path d="M0.799988 2.00002C0.799988 1.11502 1.51499 0.400024 2.39999 0.400024H21.6C22.485 0.400024 23.2 1.11502 23.2 2.00002C23.2 2.88502 22.485 3.60002 21.6 3.60002H2.39999C1.51499 3.60002 0.799988 2.88502 0.799988 2.00002ZM0.799988 10C0.799988 9.11502 1.51499 8.40002 2.39999 8.40002H21.6C22.485 8.40002 23.2 9.11502 23.2 10C23.2 10.885 22.485 11.6 21.6 11.6H2.39999C1.51499 11.6 0.799988 10.885 0.799988 10ZM23.2 18C23.2 18.885 22.485 19.6 21.6 19.6H2.39999C1.51499 19.6 0.799988 18.885 0.799988 18C0.799988 17.115 1.51499 16.4 2.39999 16.4H21.6C22.485 16.4 23.2 17.115 23.2 18Z" fill="#FE724C"/>
</svg>
